# xmcd
#
# Track frame offsets:
#	150
#	14631
#	24698
#	40160
#	52077
#	63458
#	72408
#	86008
#	100177
#	111364
#	127861
#	136118
#
# Disc length: 1909 seconds
#
# Revision: 0
# Processed by: cddbd v1.5.2PL0 Copyright (c) Steve Scherf et al.
# Submitted via: EasyCDDAExtractor 15.2.5.1
#
DISCID=a807730c
DTITLE=EARTH ISLAND - WE MUST SURVIVE
DYEAR=1900
DGENRE=
TTITLE0=EARTH PEOPLE'S PARK
TTITLE1=CIVILIZATION, I CAN'T HEAR A WORD
TTITLE2=RIDE THE UNIVERSE
TTITLE3=SEASONS OF OUR LIVES
TTITLE4=THIS ISLAND EARTH
TTITLE5=DOOMSDAY AFTERNOON
TTITLE6=ASHES, ASHES ALL FALL DOWN
TTITLE7=GREATEST ADVENTURE OF OUR LIVES
TTITLE8=PEACE and UNDERSTANDING, TORONTO 1970
TTITLE9=MOTHER EARTH IS A BEAUTIFUL LOVER
TTITLE10=THE HUNGRY PLANET
TTITLE11=SAVE OUR WORLD, WE MUST SURVIVE
EXTD=
EXTT0=
EXTT1=
EXTT2=
EXTT3=
EXTT4=
EXTT5=
EXTT6=
EXTT7=
EXTT8=
EXTT9=
EXTT10=
EXTT11=
PLAYORDER=
